Patient4_TMGait_0pt7_02_left_05_EMG.mot
version=1
nRows=20
nColumns=33
inDegrees=no
endheader
time	1LAddLong	2LGlutMax	3LGlutMed	4LIliopsoas	5LSemiMemb	6LBicFemLong	7LRecFem	8LVastMed	9LVastLat	10LGasMed	11LTibAnt	12lTibPost	13LPeroneusLong	14LSol	15LExtDigLong	16LFlexDigLong	17RAddLong	18RGlutMax	19RGlutMed	20RIliopsoas	21RSemiMemb	22RBicFemLong	23RRecFem	24RVastMed	25RVastLat	26RGasMed	27RTibAnt	28RTibPost	29RPeroneusLong	30RSol	31RExtDigLong	32RFlexDigLong
5.732	0.020142	1.1443	-0.17685	-0.015869	0.013123	-0.28748	0.41489	0.001526	-0.47577	-0.46112	-0.017853	0.009308	-0.099792	0.17136	-0.060425	0.019379	-0.16968	1.4804	0.13702	0.093689	-0.12543	-0.23468	1.0713	-0.48416	-0.20645	0.006256	-0.41809	-0.021057	0.01358	-0.052338	-0.001831	-0.006714
5.733	0.038605	1.1029	-0.11719	-0.007935	0.013275	-0.034485	0.22736	0.005951	-0.39658	-0.56107	0.004272	0.013733	0.11185	0.057831	-0.15106	0.007172	-0.088196	1.4468	-0.041656	0.15243	-0.20844	-0.24933	1.0507	-0.51758	-0.1944	0.001984	-0.27268	0.014038	-0.02594	-0.03067	-0.001831	-0.000458
5.734	0.049744	1.0765	-0.056152	-0.003662	0.06073	0.072174	0.026703	0.011444	-0.327	-0.51819	0.006104	0.057983	0.32196	0.24674	-0.005341	0.027161	-0.002899	1.4474	0.002441	0.15182	-0.26443	-0.31586	1.0225	-0.41046	-0.1683	0.010986	-0.14648	-0.002594	-0.047455	-0.02533	-0.00061	0.00061
5.735	0.075073	1.0603	-0.018463	0.025024	0.06134	0.11353	-0.12772	0.005035	-0.37018	-0.10635	0.011902	0.23605	0.14175	0.2533	0.046692	0.032501	0.043335	1.3902	-0.012207	0.17364	-0.20172	-0.21378	0.96359	-0.32501	-0.14679	-0.003052	0.025177	-0.009766	-0.065765	-0.01709	-0.001526	-0.011597
5.736	0.079651	1.1163	-0.11078	0.001221	0.015869	0.20004	-0.21255	0.00473	-0.42084	0.21088	0.019379	-0.10834	0.15991	-0.026093	0.068359	0.032501	0.074768	1.3974	0.064087	0.19073	-0.16983	-0.051422	1.0037	-0.25589	-0.15015	0.003967	-0.071716	-0.008545	-0.060272	0.017853	0.001068	0
5.737	0.083008	1.0944	-0.067596	-0.025177	-0.05127	0.21927	-0.32318	0.017395	-0.40497	0.43976	0.032654	-0.09552	0.079193	-0.16632	0.057526	0.028839	0.12192	1.3741	-0.12543	0.28839	-0.1503	-0.1062	0.97458	-0.2095	-0.10574	-0.005798	-0.05127	-0.013123	-0.058594	0.049133	0.002289	-0.009155
5.738	0.066833	1.163	0.15198	0.007629	-0.091248	0.2385	-0.39688	0.021515	-0.33188	0.55618	0.045624	0.1329	-0.24841	-0.33173	0.025482	0.021515	0.18173	1.393	-0.3804	0.067749	-0.11993	-0.16678	0.99533	-0.041504	-0.090942	0.002899	0.11444	-0.00946	-0.065308	0.050354	-0.001221	-0.00946
5.739	0.048065	1.1606	0.021362	-0.007172	-0.066376	0.18066	-0.46188	0.007324	-0.26825	0.29373	0.036926	0.11307	-0.38193	-0.3035	0.019226	0.00351	0.14771	1.3736	-0.23621	-0.28397	-0.11932	-0.12833	1.0048	0.033722	-0.059967	0.001068	0.29526	-0.010376	-0.059967	0.06012	-0.002747	-0.00885
5.74	0.041656	1.165	-0.003357	-0.007935	-0.079193	-0.21576	-0.51209	0.011902	-0.21484	0.009613	-0.000763	0.22675	-0.024719	0.012512	0.046844	-0.011139	0.16632	1.3574	-0.007477	-0.35004	-0.0737	-0.023804	1.1156	0.056305	-0.077515	0.009003	0.49469	-0.006866	-0.029449	0.042267	-0.003662	-0.008545
5.741	0.044403	1.1853	-0.01358	0.016174	-0.10819	-0.2771	-0.495	-0.001984	-0.18875	0.19608	-0.02243	0.17044	0.53451	0.15045	0.009766	-0.003815	0.12863	1.2469	0.16647	-0.14282	-0.091553	-0.039215	1.2283	0.09903	-0.066681	0.012512	0.61783	-0.007019	0.045929	0.057831	-0.001221	-0.011444
5.742	0.020752	1.1513	0.034027	0.002747	-0.1152	-0.38971	-0.49332	-0.000305	-0.17059	0.60715	-0.020905	0.092163	0.84457	0.066986	-0.066681	-0.021057	0.13245	1.3753	0.354	0.11276	-0.10498	-0.052185	1.2512	0.10941	-0.085144	0.022736	0.020905	-0.00885	0.032043	0.036926	-0.001373	-0.007629
5.743	0.020447	1.1725	0.19775	-0.004883	-0.11505	-0.20905	-0.50812	-0.000305	-0.14862	0.3656	-0.012817	0.17258	0.24124	0.091553	-0.056458	0.020142	0.17212	1.2425	0.1709	0.22812	-0.037231	-0.040131	1.241	0.17517	-0.076904	0.021515	-0.45166	-0.001984	-0.070953	0.053253	-0.000916	-0.010681
5.744	0.002441	1.1551	0.20905	-0.005341	-0.15533	0.072784	-0.49576	0.006714	-0.16571	0.11826	0.030365	0.25223	0.13947	0.073242	-0.057068	0.026703	0.17792	1.2531	0.03952	0.15686	-0.027924	-0.069885	1.205	0.11139	-0.062408	0.017395	-0.5278	-0.005188	-0.14023	0.042725	-0.005035	-0.012665
5.745	-0.012665	1.1855	0.10605	-0.005188	-0.18219	0.052032	-0.44403	0.019684	-0.13489	-0.4248	0.030365	0.053558	0.91263	0.076599	-0.11932	-0.027924	0.056	1.2488	0.19363	-0.041809	-0.058899	-0.18417	1.1093	0.058136	-0.083618	0.020294	-0.49225	-0.003204	-0.20416	0.056	0.000763	-0.009155
5.746	-0.027924	1.1926	-0.00412	-0.015411	-0.15839	0.054626	-0.39688	0.02655	-0.12177	-0.56061	0.03067	0.099487	0.075836	0.013123	-0.11185	-0.003204	0.011444	1.2498	0.34302	-0.062866	-0.060577	-0.2095	1.0677	0.092316	-0.075684	0.010376	-0.4776	-0.002594	-0.014648	0.022278	-0.002136	-0.005798
5.747	-0.021057	1.1577	0.11887	-0.007629	-0.19165	0.11246	-0.39902	0.02533	-0.056763	-0.11231	0.027771	0.22766	-0.55664	0.045319	-0.02655	0.007782	0.000305	1.2503	0.29373	-0.071564	-0.049438	-0.17059	1.0384	0.18433	-0.076447	0.007324	-0.47257	-0.002747	0.12848	-0.018768	-0.001831	-0.007324
5.748	-0.016022	1.1076	0.09201	0.004883	-0.18417	0.14496	-0.39414	0.014954	0.040588	-0.013733	-0.009766	0.18921	-0.47241	-0.23605	-0.04425	0.014954	0.031128	1.1562	0.016022	-0.010376	-0.067749	-0.079041	0.99838	0.04715	-0.092163	0.00473	-0.22888	-0.006561	0.18066	-0.056915	-0.001984	-0.002899
5.749	0.017853	1.0513	0.028992	-0.007477	-0.075378	-0.089264	-0.38101	0.001526	0.14358	-0.11688	0.039368	0.15625	-0.51315	-0.43488	-0.014038	0	0.014343	1.012	-0.15259	0.071106	-0.037537	0.013885	1.0136	-0.11429	-0.076904	0.005951	0.025787	-0.004425	0.1149	-0.052948	-0.002747	-0.00473
5.75	0.030975	0.91065	-0.04776	0.010376	0.063019	-0.32608	-0.36224	-0.006714	0.26535	-0.17975	0.042419	0.13214	0.003052	-0.31876	-0.011902	-0.000916	-0.039978	0.93277	0.10788	0.075836	-0.087128	0.098419	0.97336	-0.1059	-0.068207	0.000458	0.11444	-0.005035	0.087891	-0.097351	-0.001068	-0.008545
5.751	0.028687	0.76492	-0.12161	-0.00061	0.20035	-0.15961	-0.33005	-0.016022	0.29022	-0.27588	0.084381	0.11337	0.63873	0.062408	0.06424	0.011902	-0.083618	0.85251	-0.017548	0.063782	-0.16541	0.10742	0.97672	-0.16586	-0.039368	0.003967	-0.042419	-0.003052	0.009918	-0.12085	-0.001221	-0.018768
